# xmcd
#
# Track frame offsets: 
#        150
#        13429
#        44023
#        64659
#        78584
#        92267
#        104421
#        114665
#        144278
#        160621
#        176380
#        197000
#        206888
#        228666
#        241957
#        255812
#        265825
#        280830
#
# Disc length: 4007 seconds
#
# Revision: 2
# Processed by: cddbd v1.5.2PL0 Copyright (c) Steve Scherf et al.
# Submitted via: ExactAudioCopy v1.3
#
DISCID=f50fa512
DTITLE=Angry Johnny and the Killbillies - What's so Funny
DYEAR=1998
DGENRE=Country
TTITLE0=All American Girl
TTITLE1=High Noon in Killville
TTITLE2=Disposable Boy
TTITLE3=The Joneses
TTITLE4=Henry
TTITLE5=Shitty Day
TTITLE6=49
TTITLE7=Sent Him Home
TTITLE8=My Ghoul Maggie
TTITLE9=Devil's Run
TTITLE10=Won't Get Me Out of Your Mind
TTITLE11=Jezebel
TTITLE12=Walking Alone
TTITLE13=Kill Again
TTITLE14=Daisies
TTITLE15=Davie and Jeannie
TTITLE16=Old Boyfriend
TTITLE17=A Love More True
EXTD=
EXTT0=
EXTT1=
EXTT2=
EXTT3=
EXTT4=
EXTT5=
EXTT6=
EXTT7=
EXTT8=
EXTT9=
EXTT10=
EXTT11=
EXTT12=
EXTT13=
EXTT14=
EXTT15=
EXTT16=
EXTT17=
PLAYORDER=
